:FULLY-SPECIFIED
:FORCE-ALL-JOINTS-BE-3DOF
:DEGREES
510
root 5.90603 16.2769 -5.21772 -167.537 77.591 -172.745
lfemur -25.1007 -15.078 -22.8367
ltibia 53.8027 -0 0
lfoot -26.3601 -2.17003 -0.0389156
ltoes 5.68278 -0 0
rfemur -57.5816 5.60218 4.43073
rtibia 58.0256 -0 0
rfoot 11.2864 8.50525 0.00361969
rtoes -18.926 0 0
lowerback 8.74595 0.262651 -0.471091
upperback 1.48182 0.524132 3.17291
thorax -3.40213 0.320759 3.50124
lowerneck -8.49606 -12.4825 -4.09005
upperneck 11.6978 -16.5898 2.75331
head 5.49136 -8.08261 0.22419
lclavicle -7.27552e-014 6.83819e-014 0
lhumerus -46.9311 -34.2878 117.889
lradius 57.2024 -0 0
lwrist 7.17463 0 0
lhand 4.88577 -1.06271 0.0820191
lfingers 7.12502 -0 0
lthumb 30.2499 26.3744 0.0448199
rclavicle -7.27552e-014 6.83819e-014 0
rhumerus -12.6445 41.797 -73.5863
rradius 116.964 -0 0
rwrist -15.5952 0 0
rhand 15.3596 -11.3758 -0.000876727
rfingers 7.12502 -0 0
rthumb 40.1896 -36.5413 0.000300454
511
root 5.964 16.2384 -5.16326 -168.184 76.2378 -173.491
lfemur -25.3845 -14.4832 -22.8942
ltibia 54.7391 -0 0
lfoot -26.5692 -1.28126 -0.0454054
ltoes 4.57006 -0 0
rfemur -57.218 5.1881 3.90421
rtibia 56.6035 -0 0
rfoot 11.5315 8.57577 0.004223
rtoes -19.8395 0 0
lowerback 8.85924 0.305581 -0.339438
upperback 1.58128 0.615109 3.39517
thorax -3.36918 0.370026 3.6488
lowerneck -8.36701 -12.7306 -4.28628
upperneck 11.8408 -16.9172 2.87186
head 5.5551 -8.23951 0.257217
lclavicle -7.27552e-014 6.83819e-014 0
lhumerus -46.7 -34.0038 117.813
lradius 57.382 -0 0
lwrist 7.6571 0 0
lhand 3.84876 -1.44049 0.0957008
lfingers 7.12502 -0 0
lthumb 29.2587 26.1584 0.0522954
rclavicle -7.27552e-014 6.83819e-014 0
rhumerus -10.0017 39.7385 -72.1847
rradius 118.795 -0 0
rwrist -19.5552 0 0
rhand 15.4995 -11.4057 -0.00102285
rfingers 7.12502 -0 0
rthumb 40.3211 -36.5304 0.00035053
512
root 6.02197 16.1999 -5.10879 -168.706 74.8829 -174.113
lfemur -25.6681 -13.8886 -22.9545
ltibia 55.6756 -0 0
lfoot -26.7784 -0.392464 -0.0486507
ltoes 3.45734 -0 0
rfemur -56.8508 4.77737 3.3754
rtibia 55.1813 -0 0
rfoot 11.7766 8.6463 0.00452466
rtoes -20.753 0 0
lowerback 8.97263 0.348251 -0.207701
upperback 1.68109 0.705699 3.61758
thorax -3.33609 0.419209 3.7964
lowerneck -8.23697 -12.9782 -4.48328
upperneck 11.9834 -17.2449 2.98977
head 5.61876 -8.39644 0.290081
lclavicle -7.27552e-014 6.83819e-014 0
lhumerus -46.4701 -33.7195 117.739
lradius 57.5615 -0 0
lwrist 8.13957 0 0
lhand 2.8117 -1.81846 0.102543
lfingers 7.12502 -0 0
lthumb 28.2675 25.9424 0.0560337
rclavicle -7.27552e-014 6.83819e-014 0
rhumerus -7.49898 37.6345 -70.9445
rradius 120.626 -0 0
rwrist -23.5152 0 0
rhand 15.6394 -11.4356 -0.00109591
rfingers 7.12502 -0 0
rthumb 40.4526 -36.5195 0.000375568
513
root 6.07993 16.1613 -5.05433 -169.135 73.5269 -174.642
lfemur -25.9516 -13.2944 -23.0177
ltibia 56.612 -0 0
lfoot -26.9876 0.496334 -0.0486507
ltoes 2.34461 -0 0
rfemur -56.4801 4.37004 2.84426
rtibia 53.7592 -0 0
rfoot 12.0216 8.71682 0.00452466
rtoes -21.6665 0 0
lowerback 9.08612 0.390661 -0.0758782
upperback 1.78126 0.795901 3.84016
thorax -3.30288 0.468305 3.94402
lowerneck -8.10592 -13.2254 -4.68105
upperneck 12.1255 -17.5728 3.10703
head 5.68236 -8.55341 0.322783
lclavicle -7.27552e-014 6.83819e-014 0
lhumerus -46.2415 -33.435 117.667
lradius 57.7411 -0 0
lwrist 8.62205 0 0
lhand 1.7746 -2.19649 0.102543
lfingers 7.12502 -0 0
lthumb 27.2764 25.7262 0.0560337
rclavicle -7.27552e-014 6.83819e-014 0
rhumerus -5.12061 35.4912 -69.8518
rradius 122.456 -0 0
rwrist -27.4752 0 0
rhand 15.7792 -11.4656 -0.00109591
rfingers 7.12502 -0 0
rthumb 40.5841 -36.5085 0.000375568
514
root 6.1379 16.1228 -4.99986 -169.491 72.1699 -175.098
lfemur -26.2352 -12.7004 -23.0838
ltibia 57.5485 -0 0
lfoot -27.1968 1.38513 -0.0454054
ltoes 1.23189 -0 0
rfemur -56.1058 3.96617 2.31076
rtibia 52.337 -0 0
rfoot 12.2667 8.78735 0.004223
rtoes -22.58 0 0
lowerback 9.19971 0.432808 0.0560287
upperback 1.88177 0.885713 4.0629
thorax -3.26954 0.517317 4.09167
lowerneck -7.97386 -13.4722 -4.8796
upperneck 12.2672 -17.9011 3.22365
head 5.74589 -8.71042 0.355321
lclavicle -7.27552e-014 6.83819e-014 0
lhumerus -46.014 -33.1502 117.596
lradius 57.9206 -0 0
lwrist 9.10452 0 0
lhand 0.737535 -2.57445 0.0957008
lfingers 7.12502 -0 0
lthumb 26.2852 25.5102 0.0522954
rclavicle -7.27552e-014 6.83819e-014 0
rhumerus -2.85217 33.314 -68.8944
rradius 124.287 -0 0
rwrist -31.4352 0 0
rhand 15.9191 -11.4955 -0.00102285
rfingers 7.12502 -0 0
rthumb 40.7156 -36.4976 0.00035053
515
root 6.19587 16.0843 -4.9454 -169.789 70.8121 -175.498
lfemur -26.5188 -12.1068 -23.1528
ltibia 58.4849 -0 0
lfoot -27.4059 2.2739 -0.0389156
ltoes 0.119173 -0 0
rfemur -55.7279 3.56579 1.77488
rtibia 50.9149 -0 0
rfoot 12.5118 8.85787 0.00361969
rtoes -23.4935 0 0
lowerback 9.3134 0.474695 0.18802
upperback 1.98264 0.975134 4.2858
thorax -3.23608 0.566242 4.23935
lowerneck -7.84078 -13.7185 -5.07895
upperneck 12.4084 -18.2296 3.33963
head 5.80937 -8.86746 0.387697
lclavicle -7.27552e-014 6.83819e-014 0
lhumerus -45.7876 -32.8652 117.527
lradius 58.1002 -0 0
lwrist 9.58699 0 0
lhand -0.299465 -2.95223 0.0820191
lfingers 7.12502 -0 0
lthumb 25.294 25.2942 0.0448199
rclavicle -7.27552e-014 6.83819e-014 0
rhumerus -0.680522 31.108 -68.061
rradius 126.118 -0 0
rwrist -35.3953 0 0
rhand 16.059 -11.5254 -0.000876727
rfingers 7.12502 -0 0
rthumb 40.8471 -36.4867 0.000300454
